<?xml version="1.0" encoding="UTF-8" standalone="no"?>
<svg
   xmlns:dc="http://purl.org/dc/elements/1.1/"
   xmlns:cc="http://creativecommons.org/ns#"
   xmlns:rdf="http://www.w3.org/1999/02/22-rdf-syntax-ns#"
   xmlns:svg="http://www.w3.org/2000/svg"
   xmlns="http://www.w3.org/2000/svg"
   xmlns:sodipodi="http://sodipodi.sourceforge.net/DTD/sodipodi-0.dtd"
   xmlns:inkscape="http://www.inkscape.org/namespaces/inkscape"
   inkscape:version="1.0 (4035a4fb49, 2020-05-01)"
   height="239.35545"
   width="239.3457"
   sodipodi:docname="centerize.svg"
   xml:space="preserve"
   viewBox="0 0 239.34571 239.35546"
   y="0px"
   x="0px"
   id="Capa_1"
   version="1.1"><metadata
   id="metadata985"><rdf:RDF><cc:Work
       rdf:about=""><dc:format>image/svg+xml</dc:format><dc:type
         rdf:resource="http://purl.org/dc/dcmitype/StillImage" /><dc:title></dc:title></cc:Work></rdf:RDF></metadata><defs
   id="defs983" /><sodipodi:namedview
   inkscape:current-layer="Capa_1"
   inkscape:window-maximized="0"
   inkscape:window-y="0"
   inkscape:window-x="0"
   inkscape:cy="152.80344"
   inkscape:cx="64.539599"
   inkscape:zoom="1.8101934"
   showgrid="false"
   id="namedview981"
   inkscape:window-height="951"
   inkscape:window-width="1484"
   inkscape:pageshadow="2"
   inkscape:pageopacity="0"
   guidetolerance="10"
   gridtolerance="10"
   objecttolerance="10"
   borderopacity="1"
   bordercolor="#666666"
   pagecolor="#ffffff" />
<g
   transform="translate(-73.683594,118.64648)"
   fill = "#e6e6e6"
   id="g1632">
   <g
     id="g948"
     transform="matrix(6.7460757,0,0,6.6628066,107.47609,-86.947516)">
	<path
   d="M 10.632,11.049 4.105,10.432 c 0,0 -0.869,0.023 -0.385,-0.461 C 4.208,9.485 5.384,8.307 5.384,8.307 5.384,8.307 5.097,8.021 4.66,7.58 3.404,6.324 1.119,4.039 0.189,3.109 c 0,0 -0.322,-0.188 0.064,-0.57 C 0.638,2.15 2.32,0.467 2.595,0.195 2.866,-0.08 3.074,0.142 3.074,0.142 c 0.904,0.9 3.27,3.264 4.482,4.479 0.395,0.394 0.652,0.652 0.652,0.652 0,0 0.943,-0.945 1.539,-1.539 0.592,-0.592 0.588,0.301 0.588,0.301 0,0 0.826,5.848 0.826,6.547 0.001,0.51 -0.529,0.467 -0.529,0.467 z"
   id="path910" />
	<path
   d="m 15.371,14.904 6.525,0.617 c 0,0 0.871,-0.025 0.387,0.459 -0.486,0.486 -1.666,1.67 -1.666,1.67 0,0 0.285,0.281 0.727,0.723 1.258,1.256 3.541,3.541 4.473,4.475 0,0 0.318,0.182 -0.064,0.564 -0.385,0.387 -2.07,2.074 -2.348,2.348 -0.27,0.271 -0.475,0.055 -0.475,0.055 C 22.026,24.909 19.66,22.547 18.446,21.333 18.053,20.94 17.8,20.685 17.8,20.685 c 0,0 -0.945,0.941 -1.543,1.535 -0.592,0.594 -0.592,-0.299 -0.592,-0.299 0,0 -0.82,-5.852 -0.82,-6.547 -0.002,-0.511 0.526,-0.47 0.526,-0.47 z"
   id="path912" />
	<path
   d="m 10.994,15.338 -0.615,6.529 c 0,0 0.025,0.873 -0.461,0.385 C 9.43,21.762 8.25,20.586 8.25,20.586 c 0,0 -0.287,0.287 -0.721,0.727 -1.258,1.258 -3.547,3.541 -4.477,4.475 0,0 -0.186,0.314 -0.57,-0.068 C 2.098,25.338 0.416,23.648 0.138,23.38 -0.137,23.107 0.083,22.898 0.083,22.898 c 0.904,-0.9 3.266,-3.268 4.482,-4.482 0.395,-0.393 0.652,-0.65 0.652,-0.65 0,0 -0.943,-0.945 -1.539,-1.535 -0.596,-0.596 0.297,-0.592 0.297,-0.592 0,0 5.852,-0.822 6.553,-0.822 0.509,-0.003 0.466,0.521 0.466,0.521 z"
   id="path914" />
	<path
   d="M 14.849,10.601 15.464,4.07 c 0,0 -0.023,-0.867 0.461,-0.383 0.488,0.488 1.666,1.668 1.666,1.668 0,0 0.287,-0.287 0.729,-0.727 1.256,-1.258 3.539,-3.541 4.471,-4.471 0,0 0.186,-0.32 0.57,0.066 0.385,0.381 2.068,2.066 2.342,2.338 0.277,0.275 0.057,0.482 0.057,0.482 -0.902,0.904 -3.268,3.268 -4.48,4.482 -0.396,0.391 -0.656,0.648 -0.656,0.648 0,0 0.947,0.943 1.541,1.537 0.592,0.598 -0.297,0.592 -0.297,0.592 0,0 -5.852,0.824 -6.553,0.824 -0.507,0.003 -0.466,-0.525 -0.466,-0.525 z"
   id="path916" />
</g>
<path
     id="path997"
     fill = "#e6e6e6"
     style="overflow:hidden;stroke-width:0.267897"
     d="m 121.53516,-118.64648 c -26.414583,0 -47.851566,21.434755 -47.851566,47.849605 V 72.824219 c 0,26.46172 21.436983,47.884761 47.851566,47.884761 H 265.1543 c 26.46117,0 47.875,-21.423321 47.875,-47.884761 V -70.796875 c 0,-26.41512 -21.41411,-47.849605 -47.875,-47.849605 z m 11.96679,23.937496 h 119.6836 c 19.82285,0 35.92968,16.058559 35.92968,35.880859 V 60.867188 c 0,19.822857 -16.10683,35.917968 -35.92968,35.917968 h -119.6836 c -19.82285,0 -35.904294,-16.095112 -35.904294,-35.917968 V -58.828125 c 0,-19.8223 16.081444,-35.880859 35.904294,-35.880859 z" /></g></svg>
