<?xml version="1.0" encoding="UTF-8" standalone="no"?>
<svg
   xmlns:dc="http://purl.org/dc/elements/1.1/"
   xmlns:cc="http://creativecommons.org/ns#"
   xmlns:rdf="http://www.w3.org/1999/02/22-rdf-syntax-ns#"
   xmlns:svg="http://www.w3.org/2000/svg"
   xmlns="http://www.w3.org/2000/svg"
   xmlns:sodipodi="http://sodipodi.sourceforge.net/DTD/sodipodi-0.dtd"
   xmlns:inkscape="http://www.inkscape.org/namespaces/inkscape"
   inkscape:version="1.0 (4035a4fb49, 2020-05-01)"
   height="175.89999"
   width="106.8"
   sodipodi:docname="minimap.svg"
   xml:space="preserve"
   viewBox="0 0 106.8 175.89999"
   y="0px"
   x="0px"
   id="outline"
   version="1.0"><metadata
   id="metadata14"><rdf:RDF><cc:Work
       rdf:about=""><dc:format>image/svg+xml</dc:format><dc:type
         rdf:resource="http://purl.org/dc/dcmitype/StillImage" /><dc:title></dc:title></cc:Work></rdf:RDF></metadata><defs
   id="defs12" /><sodipodi:namedview
   inkscape:current-layer="outline"
   inkscape:window-maximized="0"
   inkscape:window-y="0"
   inkscape:window-x="0"
   inkscape:cy="88.5"
   inkscape:cx="53.5"
   inkscape:zoom="3.203125"
   showgrid="false"
   id="namedview10"
   inkscape:window-height="1008"
   inkscape:window-width="1666"
   inkscape:pageshadow="2"
   inkscape:pageopacity="0"
   guidetolerance="10"
   gridtolerance="10"
   objecttolerance="10"
   borderopacity="1"
   bordercolor="#666666"
   pagecolor="#ffffff" />
<style
   id="style2"
   type="text/css">
	.st0{fill:#F6F6F6;fill-opacity:0;}
	.st1{fill:#020202;}
   .st3{fill:#e6e6e6;stroke-width:3;stroke:#e6e6e6}
</style>
<path
   d="m 181.5,216.5 h -256 v -256 h 256 z"
   class="st0"
   id="canvas" />
<path
   id="path5"
   class="st3"
   d="M 53.4,0 C 24,0 0,24 0,53.4 c 0,3.4 0.6,7.6 2,12.7 0.6,2.3 1.4,4.5 2.4,6.6 L 52.8,175.9 100.9,75.6 c 2.6,-5.2 4.3,-10.6 5.2,-15.9 0.5,-2.2 0.7,-4.3 0.7,-6.3 C 106.8,24 82.8,0 53.4,0 Z M 11.1,63.6 C 10,59.5 9.5,56 9.5,53.4 9.5,29.2 29.2,9.6 53.3,9.6 c 24.2,0 43.8,19.7 43.8,43.8 0,1.9 -0.2,3.8 -0.7,5.8 -0.8,4 -2.1,7.9 -3.9,11.6 L 52.9,153.2 12.7,68 v 0 c -0.8,-1.7 -1.3,-3 -1.6,-4.4 z" />
<path
   id="path7"
   d="M 53.4,27 C 40,27 29.1,37.9 29.1,51.3 29.1,64.7 40,75.6 53.4,75.6 66.8,75.6 77.7,64.7 77.7,51.3 77.7,37.9 66.8,27 53.4,27 Z m 0,39.8 c -8.6,0 -15.5,-7 -15.5,-15.5 0,-8.5 7,-15.5 15.5,-15.5 8.5,0 15.5,7 15.5,15.5 0,8.5 -6.9,15.5 -15.5,15.5 z"
   class="st3" />
</svg>
